# xmcd
#
# Track frame offsets:
#       150
#       17521
#       33535
#       46393
#       62723
#       75336
#       96719
#       110993
#       131133
#       146475
#       159076
#       182216
#       198845
#       211323
#
# Disc length: 3073 seconds
#
# Revision: 1
# Processed by: cddbd v1.5.2PL0 Copyright (c) Steve Scherf et al.
# Submitted via: WhereIsIt 2010.1026
#
DISCID=c40bff0e
DTITLE=Various Artist - Mr music country 2010 10
DYEAR=2010
DGENRE=country
TTITLE0=Whitey morgan and 78's - Hold her when she cries
TTITLE1=Kurt Wooldridge - Nowhere bound
TTITLE2=Eilen Jewell - Whispering sea
TTITLE3=Arty Hill and The Long Gone Daddys - Church on saturday night
TTITLE4=Whisky and Dynamite - Folsom prison blues
TTITLE5=Chip Taylor - Could i live with this
TTITLE6=Frank Torres - Truck driving is my wife
TTITLE7=Egil  Skjelnes - Jenny dreamed of trains
TTITLE8=Ben Carbine and the 18 wheelers - Roll on
TTITLE9=John Lott - Tight fittin' jeans
TTITLE10=Trailerpark Idlers - The house in the valley
TTITLE11=Butch Rawlins - Rodeo preacher
TTITLE12=Kim Carson - Boney fingers
TTITLE13=Highway 40 - Shotgun rider
EXTD=
EXTT0=
EXTT1=
EXTT2=
EXTT3=
EXTT4=
EXTT5=
EXTT6=
EXTT7=
EXTT8=
EXTT9=
EXTT10=
EXTT11=
EXTT12=
EXTT13=
PLAYORDER=
